<?xml version="1.0" encoding="utf-8"?>
<!-- Generator: Adobe Illustrator 19.2.0, SVG Export Plug-In . SVG Version: 6.00 Build 0)  -->
<svg version="1.1" id="Layer_1" xmlns="http://www.w3.org/2000/svg" xmlns:xlink="http://www.w3.org/1999/xlink" x="0px" y="0px"
	 width="482.719px" height="196.487px" viewBox="0 0 482.719 196.487" style="enable-background:new 0 0 482.719 196.487;"
	 xml:space="preserve">
<style type="text/css">
	.st0{fill:#4CC2B8;}
	.st1{fill:#fff;}
</style>
<g id="Слой_x0020_1">
	<g id="_2400092824976">
		<path class="st0" d="M76.043,190.614c0-1.417,2.948-3.033,4.28-3.827c2.098-1.191,3.912-1.531,5.556,0.34
			C89.621,191.38,78.197,191.862,76.043,190.614z M99.741,159.943c2.211-0.255,4.564-0.085,6.661,0.482
			c2.126,0.595,3.827,1.247,4.365,3.118c1.616,5.584-3.061,18.142-6.35,23.131c-2.154,3.317-4.195,5.698-9.836,3.855
			c-1.814-0.567-3.713-1.474-5.159-2.353c-5.187-3.175-8.731-7.625-5.839-14.258c1.899-4.309,6.293-10.006,10.205-12.331
			C95.262,160.737,97.756,160.199,99.741,159.943z M35.621,72.126c-0.255,0.567-0.992,1.446-1.389,2.013
			c-8.929,12.926-8.674,26.419-2.693,40.791c5.386,13.039,15.449,22.706,26.391,29.168c5.953,3.515,11.849,6.236,18.255,9.439
			c2.551,1.304,7.172,3.543,7.795,6.038c0.567,2.296-2.381,8.702-3.26,10.488c-1.616,3.203-3.402,6.009-5.329,8.532
			c-1.077,1.361-1.871,2.353-3.288,3.628c-1.531,1.389-2.381,1.616-5.017,2.098c-5.981,1.106-12.529,1.219-18.567,2.211
			c-1.559,0.227-4.734,0.539-4.932,2.154c1.701,1.843,16.157,1.672,21.231,2.75c3.458,0.709,3.033,2.013,11.565,3.09
			c5.868,0.737,11.934,0.964,17.915,1.219c3.912,0.17,15.591,0.907,18.567,0.709c1.106-2.466-0.964-11.849,3.6-22.535
			c2.523-5.924,5.499-12.019,8.391-17.773c2.239-4.479,6.378-13.465,8.079-18.085c4.394-11.934,6.775-33.024-0.028-43.767
			c-3.317-5.244-8.107-8.561-14.117-12.047c-17.49-10.091-29.083-6.151-31.351-14.372c-3.572-12.898-4.337-33.392-18.142-40.734
			c-12.047-6.406-31.521-3.033-42.491,2.835C14.56,36.495,13.879,44.97,11.81,47.663c-1.531,1.984-7.682,6.548-10.035,9.581
			c-5.216,6.661,1.446,3.515,14.939,7.512C20.427,65.833,33.325,69.887,35.621,72.126z"/>
		<path class="st1" d="M440.465,125.928V89.332l-14.769-0.028v61.427h15.619c0.907-1.389,2.211-2.806,3.26-4.195l9.921-12.784
			c1.304-1.701,12.841-16.696,13.323-17.008v33.987h14.74c0.34-5.443,0.028-11.934,0.028-17.461c0-10.998,0.255-24.293,0-35.008
			c-0.113-5.414-3.061-8.929-8.561-8.957c-1.389,0-2.863-0.028-4.252,0c-0.907,0.028-0.907,0.113-1.332,0.68
			c-0.425,0.567-0.624,0.794-1.02,1.304C464.701,94.973,440.89,125.758,440.465,125.928z"/>
		<path class="st1" d="M216.868,137.011l-8.107,0.085v13.606c3.033,0.255,14.74,0.227,17.121-0.425
			c5.357-1.531,5.811-5.698,5.811-11.792c0-2.75-0.198-33.732,0.057-35.546h25.739l0.057,47.792h14.598l0.057-61.427h-38.693
			c-8.844,0-16.044-1.644-16.554,9.156c-0.312,6.435-0.057,18.709-0.057,25.795C216.897,128.309,217.123,133.043,216.868,137.011z"
			/>
		<path class="st1" d="M149.801,150.646l15.024,0.085c0.312-3.402,0-17.433,0.028-23.046c0-2.778,1.502-1.276,2.438-0.085
			c5.641,7.115,12.189,15.024,17.518,22.082c1.049,1.361,0.822,1.077,2.948,1.049c5.329-0.028,10.658,0,15.987,0
			c-0.425-0.935-21.827-27.326-24.151-30.246c-1.134-1.389-2.324-3.005-3.515-4.337c0.397-0.907,9.354-11.679,10.517-13.068
			c0.822-0.964,1.106-1.531,2.608-2.211c1.928-0.822,7.002,0.227,9.213-0.369V89.389c-2.126-0.34-10.857-0.142-13.096,0.142
			c-3.997,0.51-6.208,2.013-8.504,4.932c-0.907,1.134-11.169,13.918-12.132,14.769c-0.879-7.54,2.835-18.113-6.435-19.729
			c-1.332-0.227-7.058-0.369-8.419-0.113L149.801,150.646z"/>
		<path class="st1" d="M366.963,150.731h14.995c0.425-3.26-0.312-23.726,0.17-24.35c0.964-1.219,3.09,2.239,4.054,3.43
			c5.102,6.435,10.942,13.521,15.846,19.928c1.02,1.361,0.794,1.02,2.976,0.992c5.046,0,10.998,0.312,15.902-0.028l-6.832-8.589
			c-1.474-1.871-20.324-25.087-20.835-26.135c0.397-0.652,1.587-2.013,2.069-2.608l6.406-7.824c1.247-1.502,2.778-3.883,4.734-4.677
			c1.616-0.68,6.803-0.028,9.071-0.312V89.361c-3.146-0.255-10.091-0.227-13.096,0.17c-4.479,0.567-6.52,2.494-8.476,4.989
			c-0.765,0.935-11.537,14.315-12.189,14.769c-0.142-4.252,0.68-13.181-1.077-16.299c-2.353-4.224-7.767-3.883-13.663-3.657
			L366.963,150.731z"/>
		<path class="st1" d="M279.542,23.512c8.164-1.304,11.537,4.62,11.962,11.877c0.454,7.483-1.332,14.825-8.022,15.931
			c-8.277,1.389-11.395-4.762-11.962-12.076C271.01,32.866,272.059,24.731,279.542,23.512z M259.388,79.921
			c6.69,0,12.019,1.332,12.019-6.463c0-2.891-0.17-16.724,0.057-18.397c3.373,5.102,8.674,8.362,17.291,6.746
			c7.143-1.332,11.055-5.584,13.294-11.707c2.126-5.896,2.409-15.704,0.85-21.997c-1.701-6.718-5.499-11.339-11.537-13.465
			c-6.435-2.268-15.392-1.928-21.345,0.709c-5.443,2.438-9.043,7.512-10.205,14.825c-0.737,4.564-0.425,19.106-0.425,24.633
			C259.388,63.169,259.388,71.559,259.388,79.921z"/>
		<path class="st1" d="M182.853,24.306h11.906v28.687h-17.546c0.368-1.786,1.446-4.422,2.041-6.52
			C181.35,38.819,182.796,32.554,182.853,24.306z M165.363,52.992l-3.033,0.028l-0.057,17.093l11.537,0.057l0.028-8.844h24.378
			v8.759l11.509,0.085l0.028-17.093l-3.26-0.085c-0.68-3.997,0.737-33.279-0.539-36.397c-0.964-2.381-3.146-2.891-6.265-2.891
			c-3.742,0-25.909-0.17-27.581,0.057c-0.283,3.487-0.057,7.512-0.255,11.055c-0.539,8.929-1.446,15.874-4.791,24.123
			C166.582,50.101,165.618,51.972,165.363,52.992z"/>
		<path class="st1" d="M311.347,61.326h12.189l20.466-26.306l0.028,26.306h11.424c0.34-4.365,0.028-9.921,0.028-14.4
			c0-4.422,0.397-26.306-0.454-28.885c-1.389-4.309-5.017-4.762-10.12-4.309c-0.85,0.879-1.928,2.466-2.693,3.458l-19.332,24.803
			l-0.028-28.261l-11.452-0.028L311.347,61.326z"/>
		<path class="st1" d="M307.435,102.825c1.276,0.312,14.825,0.028,17.575,0.113l0.057,47.764l16.101,0.028l0.085-47.735
			c3.317-0.425,15.874,0.454,17.66-0.227l0.028-13.38c-1.332-0.255-36.68-0.085-40.649-0.085c-2.976,0-4.819-0.34-7.087,1.106
			C307.208,93.017,307.35,96.901,307.435,102.825z"/>
		<path class="st1" d="M110.938,40.803c2.721-0.312,8.702-0.17,11.65-0.057c3.997,0.142,5.896,1.616,5.896,5.613
			c0,4.11-2.126,5.216-6.18,5.471c-3.061,0.17-8.306,0.198-11.395-0.028L110.938,40.803z M110.909,23.285
			c2.608-0.369,7.483-0.057,10.318-0.085c3.515,0,6.066,0.737,5.981,4.479c-0.085,3.515-2.721,4.309-6.18,4.309
			c-2.835-0.028-7.512,0.255-10.12-0.085V23.285z M100.534,61.298c2.778,0.198,14.117,0.028,17.802,0.028
			c5.868,0,10.743,0,15.08-2.778c3.515-2.268,5.896-5.924,5.811-12.019c-0.057-5.924-2.608-9.298-7.03-10.97
			c1.644-1.502,5.074-2.693,5.528-8.447c0.794-9.808-5.839-13.436-14.57-13.408c-4.677,0-9.354,0-14.032,0
			c-3.033,0-8.589-0.992-8.617,5.329v28.091C100.506,51.745,100.336,56.706,100.534,61.298z"/>
		<path class="st1" d="M215.848,61.298l11.679,0.028c0.17-3.09-0.397-17.49,0.17-18.879c0.765-0.822,1.984,1.276,2.353,1.786
			c1.587,1.984,13.294,16.98,13.833,17.093h13.805c-0.51-0.907-3.033-3.94-3.94-5.017c-3.798-4.507-8.306-10.431-12.161-15.165
			l-5.329-6.718l3.203-4.054c8.306-10.006,4.677-7.342,14.031-7.909l0.028-8.731c-2.835-0.142-7.483-0.198-10.148,0.142
			c-3.458,0.454-5.017,1.899-6.576,3.827l-7.002,8.589c-0.567,0.709-1.843,2.466-2.438,2.778
			c-0.113-11.452,2.041-16.157-11.452-15.335L215.848,61.298z"/>
		<path class="st1" d="M283.057,150.731h15.421c0.255-1.984,0.057-35.291,0.057-38.211c0-3.798,0.454-16.129-0.397-18.879
			c-0.737-2.438-2.494-3.883-5.414-4.252c-2.438-0.312-7.058-0.142-9.666-0.057V150.731z"/>
		<path class="st1" d="M363.986,24.306h13.606l0.057,37.02h12.529l0.028-37.02h13.663V13.732c-6.18-0.283-18.368-0.028-25.2-0.028
			c-3.146,0-9.326-0.624-11.622,0.822C363.901,16.482,363.93,19.685,363.986,24.306z"/>
		<path class="st1" d="M410.475,61.241l11.991,0.085c0.255-4.734,0.028-10.006,0.028-14.797c0-4.195,0.34-27.383-0.369-29.594
			c-0.624-1.899-2.013-2.92-4.337-3.175c-1.361-0.142-5.981-0.198-7.285,0L410.475,61.241z"/>
		<path class="st1" d="M144.925,61.269l11.991,0.057c0.227-4.791,0.028-9.978,0.028-14.797c0-4.139,0.34-27.468-0.34-29.594
			c-0.624-1.899-2.098-2.92-4.309-3.175c-1.616-0.17-5.698-0.17-7.313-0.028L144.925,61.269z"/>
		<path class="st1" d="M283.057,83.89l15.477,0.028c0.028-4.734,0.595-9.014-2.721-11.027c-2.778-1.672-9.014-1.162-12.699-1.106
			L283.057,83.89z"/>
		<path class="st1" d="M144.925,9.509l11.962,0.028c0.34-2.806,0.425-6.917-2.069-8.532c-1.899-1.219-7.143-1.049-9.808-0.879
			L144.925,9.509z"/>
		<path class="st1" d="M410.475,9.48l11.962,0.057c0.482-3.26,0.17-7.143-2.069-8.561c-1.786-1.106-7.313-1.077-9.836-0.85
			L410.475,9.48z"/>
	</g>
</g>
</svg>
